<svg width="60" height="60" viewBox="0 0 60 60" fill="none" xmlns="http://www.w3.org/2000/svg">
<circle cx="30" cy="30" r="30" fill="url(#paint0_linear_152_106)"/>
<g clip-path="url(#clip0_152_106)">
<path d="M38.7022 25.0433C40.0751 26.8582 40.9277 29.2095 41.2106 31.9236C42.0801 30.9319 42.7316 29.9635 43.1838 28.9931C43.764 27.7476 44.0342 26.4743 44.0342 24.9859C44.0342 19.7791 40.0308 15.4909 34.942 15.0391C34.8587 18.0136 33.6499 20.113 32.6172 21.3739C35.1103 21.7973 37.1898 23.044 38.7022 25.0433Z" fill="white"/>
<path d="M22.5728 25.0444C24.4106 22.6149 27.0854 21.2953 30.3228 21.2159C30.6183 20.9635 31.2009 20.4114 31.7592 19.5652C32.655 18.2074 33.131 16.6748 33.1796 15H27.4428C21.9388 15 17.4609 19.4801 17.4609 24.987C17.4609 27.8428 18.927 30.3108 20.077 31.8076C20.372 29.143 21.2197 26.8331 22.5728 25.0444Z" fill="white"/>
<path d="M23.2915 40.6257L21.1936 39.6387C21.0814 39.5859 20.9911 39.4956 20.9383 39.3834L19.9513 37.2855C19.853 37.0767 19.556 37.0767 19.4577 37.2855L18.4707 39.3834C18.4179 39.4956 18.3277 39.5859 18.2154 39.6387L16.1176 40.6257C15.9087 40.724 15.9087 41.0211 16.1176 41.1193L18.2154 42.1063C18.3277 42.1591 18.4179 42.2494 18.4707 42.3616L19.4578 44.4595C19.556 44.6683 19.8531 44.6683 19.9513 44.4595L20.9384 42.3616C20.9912 42.2494 21.0814 42.1591 21.1937 42.1063L23.2915 41.1193C23.5003 41.0211 23.5003 40.7239 23.2915 40.6257Z" fill="white"/>
<path d="M30.6389 22.9707C30.6384 22.9707 30.6378 22.9708 30.6373 22.9708C30.6368 22.9708 30.6364 22.9707 30.636 22.9707C27.7904 22.9708 25.5497 24.0256 23.9761 26.1057C22.4993 28.0579 21.7188 30.7828 21.7188 33.9856C21.7188 35.3735 22.0516 36.9059 22.6661 38.3894L24.5307 39.2666C25.0625 39.5169 25.4549 40.0052 25.5498 40.5853C25.6472 41.1808 25.4354 41.7571 25.025 42.1469C26.6823 43.9754 28.6721 45.0004 30.6365 45.0004C32.8773 45.0004 35.0905 43.7333 36.8684 41.4324C38.5502 39.2558 39.5543 36.472 39.5543 33.9856C39.5543 30.7828 38.7737 28.0579 37.2969 26.1056C35.7238 24.026 33.4837 22.9713 30.6389 22.9707ZM24.6221 33.4453C24.1347 33.2371 23.939 32.6496 24.2061 32.1917C24.4288 31.8097 24.9004 31.6524 25.3079 31.8242L25.3748 31.868C25.4168 31.891 26.4177 32.4255 27.7326 31.8316C28.1843 31.6276 28.7173 31.8368 28.9074 32.2989C29.0917 32.7466 28.8612 33.255 28.4185 33.4508C27.7161 33.7616 27.0612 33.8672 26.4957 33.8672C25.7005 33.8671 25.2575 33.7169 24.6221 33.4453ZM33.6414 40.1072C32.4991 40.6175 31.4396 40.7896 30.5301 40.7896C29.3213 40.7896 28.3518 40.4599 27.6285 40.1401C27.1316 39.9204 26.9366 39.3175 27.2104 38.8482C27.4283 38.4746 27.899 38.3348 28.2854 38.529C28.3685 38.5759 30.3508 39.6646 32.9506 38.4902C33.4036 38.2855 33.9388 38.4968 34.1273 38.962C34.3077 39.407 34.0799 39.9114 33.6414 40.1072ZM36.6557 33.4508C35.9533 33.7614 35.2984 33.8672 34.733 33.8672C33.9378 33.8672 33.4948 33.717 32.8594 33.4454C32.372 33.2371 32.1763 32.6496 32.4433 32.1917C32.6661 31.8097 33.1377 31.6524 33.5451 31.8242L33.6121 31.868C33.6541 31.891 34.6551 32.4255 35.9699 31.8316C36.4214 31.6276 36.9546 31.8368 37.1447 32.2989C37.3289 32.7466 37.0984 33.255 36.6557 33.4508Z" fill="white"/>
<path d="M41.6914 38.5312C42.1768 38.5312 42.5703 38.1378 42.5703 37.6523C42.5703 37.1669 42.1768 36.7734 41.6914 36.7734C41.206 36.7734 40.8125 37.1669 40.8125 37.6523C40.8125 38.1378 41.206 38.5312 41.6914 38.5312Z" fill="white"/>
<path d="M42.6289 42.6836C43.1143 42.6836 43.5078 42.2901 43.5078 41.8047C43.5078 41.3193 43.1143 40.9258 42.6289 40.9258C42.1435 40.9258 41.75 41.3193 41.75 41.8047C41.75 42.2901 42.1435 42.6836 42.6289 42.6836Z" fill="white"/>
</g>
<defs>
<linearGradient id="paint0_linear_152_106" x1="60" y1="42.9375" x2="-14.9611" y2="2.72364" gradientUnits="userSpaceOnUse">
<stop stop-color="#037B76"/>
<stop offset="1" stop-color="#AED5C6"/>
</linearGradient>
<clipPath id="clip0_152_106">
<rect width="30" height="30" fill="white" transform="translate(15 15)"/>
</clipPath>
</defs>
</svg>
